<svg width="100" height="53" viewBox="0 0 100 53" fill="none" xmlns="http://www.w3.org/2000/svg">
<path d="M46.3185 19.2924C44.2473 18.2567 41.813 18.1495 39.7115 18.8954C44.0597 18.8954 46.9788 20.985 48.445 24.057C49.3203 25.8837 47.9198 27.9423 46.0351 27.9423C47.9158 27.9423 49.3221 29.9973 48.445 31.8277C46.9423 34.9757 43.7381 37.0176 40.2504 37.0176C40.1935 37.0176 30.6091 36.1384 30.6091 36.1384L23.8321 39.5416C22.8744 40.0206 21.8098 39.5803 21.3935 38.7475L16.8565 29.6723C16.4312 28.793 16.7431 27.7437 17.5653 27.2616L23.4919 23.8867L27.6886 16.3147C28.3408 10.4725 31.2331 5.11237 35.8268 1.34051C36.9893 0.376298 38.7191 0.546424 39.6549 1.70924C40.6189 2.87206 40.4489 4.57363 39.2862 5.53795C38.0103 6.61556 36.8759 7.83511 35.9685 9.16804C38.1803 7.66489 40.7324 6.64403 43.5396 6.30367C45.0424 6.10516 46.4036 7.15439 46.5739 8.65755C46.7721 10.1607 45.723 11.522 44.2201 11.6921C42.5754 11.8906 41.0442 12.4578 39.7115 13.2519C42.3766 12.6689 45.7036 12.9316 48.7004 14.3862C50.0612 15.0668 50.6284 16.6834 49.9482 18.0447C49.2959 19.3775 47.6513 19.9447 46.3185 19.2924ZM43.5396 26.3824C42.9158 25.1062 41.6681 24.3121 40.2503 24.3121C39.7732 24.3107 39.3005 24.4036 38.8595 24.5856C38.4185 24.7675 38.0178 25.0348 37.6804 25.3722C37.3431 25.7096 37.0758 26.1103 36.894 26.5514C36.7121 26.9925 36.6192 27.4651 36.6207 27.9422C36.6207 30.1291 38.4381 31.5723 40.2503 31.5723C41.6681 31.5723 42.9158 30.7782 43.5396 29.502C43.9934 28.5377 44.929 27.9706 45.9216 27.9422C44.929 27.9139 43.9934 27.3467 43.5396 26.3824ZM81.7919 22.5822C82.2176 23.4614 81.9054 24.5107 81.0833 24.9928L75.1567 28.3677L70.9599 35.9398C70.3076 41.7819 67.4153 47.1419 62.8216 50.914C61.7063 51.8437 59.9847 51.7451 58.9937 50.5451C58.0297 49.3825 58.1995 47.6807 59.3626 46.7167C60.6383 45.6388 61.7725 44.4193 62.6802 43.0864C60.4685 44.5896 57.9162 45.6104 55.109 45.9509C54.0865 46.2063 52.2973 45.3748 52.0748 43.5969C51.8766 42.0938 52.9257 40.7325 54.4284 40.5624C56.0734 40.3638 57.6045 39.7966 58.9369 39.0025C56.2721 39.5856 52.945 39.3228 49.9482 37.8682C48.5874 37.1876 48.0203 35.5711 48.7004 34.2098C49.3527 32.8768 50.9973 32.3096 52.3302 32.9619C54.4013 33.9977 56.8356 34.1048 58.9374 33.3589C54.5892 33.3589 51.6703 31.2693 50.2036 28.1974C49.3284 26.3707 50.7288 24.312 52.614 24.312C50.7329 24.312 49.3266 22.257 50.2036 20.4267C51.6356 17.4266 54.6977 15.2334 58.5685 15.2367L68.0396 16.116L74.8167 12.7127C75.777 12.2327 76.8401 12.6766 77.2554 13.5068L81.7919 22.5822ZM58.3982 20.6821C56.9802 20.6821 55.7329 21.4762 55.109 22.7524C54.6549 23.7167 53.7194 24.2839 52.727 24.3122C53.7194 24.3406 54.6549 24.9078 55.109 25.8721C55.7329 27.1482 56.9802 27.9423 58.3982 27.9423C58.8752 27.9437 59.3482 27.8508 59.7892 27.6689C60.2302 27.4869 60.6306 27.2196 60.968 26.8822C61.3054 26.5448 61.5725 26.1441 61.7545 25.703C61.9365 25.262 62.0293 24.7893 62.0279 24.3122C62.0279 22.1253 60.2103 20.6821 58.3982 20.6821Z" fill="white"/>
<path d="M7.44829 16.6667H5.47401V13.1827H2.78717V16.6667H0.812927V8.8067H2.78717V11.6836H5.47401V8.8067H7.44829V16.6667ZM12.2414 15.12V13.8848C11.9282 13.9165 11.6748 13.9446 11.4812 13.9693C11.2877 13.9904 11.0976 14.0344 10.9111 14.1012C10.7492 14.1576 10.6225 14.2438 10.531 14.3599C10.4431 14.4725 10.3991 14.6238 10.3991 14.8139C10.3991 15.0919 10.473 15.2837 10.6208 15.3893C10.7721 15.4913 10.9938 15.5423 11.2859 15.5423C11.4478 15.5423 11.6132 15.5054 11.7821 15.4315C11.951 15.3576 12.1041 15.2538 12.2414 15.12ZM12.2414 16.0385C12.1146 16.1441 12.0003 16.2391 11.8982 16.3236C11.7997 16.408 11.6659 16.4925 11.497 16.577C11.3316 16.6579 11.1698 16.7195 11.0114 16.7617C10.8566 16.804 10.6384 16.8251 10.3569 16.8251C9.83248 16.8251 9.39613 16.6491 9.04771 16.2972C8.70284 15.9453 8.53041 15.5019 8.53041 14.967C8.53041 14.5271 8.61838 14.1716 8.79433 13.9007C8.97032 13.6297 9.2237 13.415 9.55446 13.2567C9.88879 13.0948 10.2882 12.9821 10.7528 12.9188C11.2173 12.8555 11.717 12.8062 12.2519 12.771V12.7393C12.2519 12.4121 12.1305 12.1868 11.8877 12.0636C11.6484 11.937 11.2877 11.8736 10.8055 11.8736C10.5873 11.8736 10.3322 11.9141 10.0401 11.995C9.74802 12.0725 9.46298 12.1727 9.18496 12.2959H9.02663V10.8654C9.2096 10.8126 9.50523 10.751 9.91343 10.6806C10.3217 10.6067 10.7334 10.5698 11.1487 10.5698C12.1692 10.5698 12.9118 10.7405 13.3763 11.0818C13.8443 11.4197 14.0783 11.937 14.0783 12.6338V16.6667H12.2414V16.0385ZM20.9987 16.6667H19.1406V13.7265C19.1406 13.4871 19.1301 13.2496 19.109 13.0138C19.0914 12.7745 19.0562 12.5986 19.0034 12.486C18.94 12.3522 18.8486 12.2572 18.7289 12.2009C18.6092 12.1411 18.4491 12.1112 18.2485 12.1112C18.0972 12.1112 17.9441 12.1393 17.7893 12.1956C17.6344 12.2519 17.469 12.3417 17.2931 12.4649V16.6667H15.4455V10.7387H17.2931V11.3933C17.5957 11.1364 17.8896 10.9358 18.1746 10.7915C18.4632 10.6472 18.7817 10.5751 19.1301 10.5751C19.7354 10.5751 20.1981 10.7668 20.5184 11.1504C20.8386 11.5305 20.9987 12.083 20.9987 12.808V16.6667ZM27.7608 16.6667H25.9132V16.0491C25.7936 16.1476 25.6563 16.2532 25.5015 16.3658C25.3501 16.4784 25.2164 16.5629 25.1003 16.6192C24.9525 16.6896 24.8064 16.7424 24.6622 16.7776C24.5179 16.8127 24.3455 16.8303 24.1449 16.8303C23.4692 16.8303 22.9343 16.5506 22.5401 15.991C22.146 15.4315 21.9489 14.6837 21.9489 13.7476C21.9489 13.2303 22.0158 12.7816 22.1495 12.4015C22.2832 12.0214 22.468 11.6906 22.7037 11.4091C22.9184 11.1522 23.1788 10.9498 23.485 10.8021C23.7912 10.6507 24.115 10.5751 24.4563 10.5751C24.766 10.5751 25.0194 10.6085 25.2164 10.6753C25.417 10.7387 25.6493 10.839 25.9132 10.9762V8.453H27.7608V16.6667ZM25.9132 15.0303V12.1217C25.8217 12.076 25.7021 12.039 25.5543 12.0109C25.4064 11.9792 25.2798 11.9634 25.1742 11.9634C24.7308 11.9634 24.3965 12.1182 24.1713 12.4279C23.9496 12.7376 23.8387 13.1704 23.8387 13.7265C23.8387 14.3106 23.9267 14.7329 24.1026 14.9934C24.2821 15.2538 24.5707 15.384 24.9683 15.384C25.1302 15.384 25.2938 15.3523 25.4592 15.2889C25.6246 15.2256 25.776 15.1394 25.9132 15.0303Z" fill="white"/>
<path d="M81.6739 35.3832L79.6838 43.2432H77.5198L76.2581 38.3815L75.0333 43.2432H72.8694L70.8793 35.3832H72.927L74.0094 40.6567L75.3288 35.3832H77.2874L78.5383 40.6567L79.6788 35.3832H81.6739ZM88.2356 40.2819C88.2356 41.2567 87.968 42.0256 87.4333 42.5887C86.9018 43.1482 86.1486 43.428 85.1739 43.428C84.2063 43.428 83.4531 43.1482 82.9144 42.5887C82.3797 42.0256 82.1122 41.2567 82.1122 40.2819C82.1122 39.2965 82.3797 38.5258 82.9144 37.9698C83.4531 37.4103 84.2063 37.1305 85.1739 37.1305C86.145 37.1305 86.8982 37.412 87.4333 37.9751C87.968 38.5346 88.2356 39.3035 88.2356 40.2819ZM86.3405 40.2924C86.3405 39.9405 86.3104 39.6484 86.2509 39.4162C86.1946 39.1804 86.1153 38.9921 86.0131 38.8513C85.904 38.7035 85.7811 38.6015 85.6437 38.5452C85.5063 38.4853 85.35 38.4554 85.1739 38.4554C85.0085 38.4554 84.859 38.4818 84.7252 38.5346C84.5914 38.5839 84.4685 38.6807 84.3558 38.8249C84.25 38.9622 84.1658 39.1505 84.1022 39.3898C84.0387 39.6291 84.0072 39.9299 84.0072 40.2924C84.0072 40.6549 84.0369 40.9487 84.0968 41.174C84.1567 41.3957 84.2342 41.5734 84.3293 41.7071C84.4279 41.8444 84.5509 41.9447 84.6986 42.008C84.8464 42.0713 85.0104 42.1031 85.1896 42.1031C85.3374 42.1031 85.4869 42.0713 85.6383 42.008C85.7932 41.9447 85.9162 41.8496 86.0081 41.723C86.1171 41.5717 86.1995 41.3904 86.2558 41.1793C86.3122 40.9646 86.3405 40.669 86.3405 40.2924ZM93.1973 39.0625H93.0446C92.9739 39.0379 92.8721 39.0203 92.7383 39.0097C92.6045 38.9956 92.4567 38.9886 92.295 38.9886C92.1013 38.9886 91.8973 39.0167 91.6824 39.0731C91.4712 39.1294 91.2653 39.1962 91.0649 39.2736V43.2432H89.2171V37.3152H91.0649V38.1651C91.1495 38.0877 91.2653 37.9909 91.4135 37.8748C91.5644 37.7551 91.7018 37.6601 91.8252 37.5897C91.9585 37.5088 92.1135 37.4402 92.2896 37.3839C92.4689 37.324 92.6378 37.2941 92.7964 37.2941C92.8563 37.2941 92.923 37.2959 92.9968 37.2994C93.0707 37.3029 93.1378 37.3082 93.1973 37.3152V39.0625ZM99.8383 43.2432H97.6423L96.0374 40.6619L95.7522 41.0473V43.2432H93.9049V35.0295H95.7522V39.6326L97.5049 37.3152H99.6851L97.6104 39.8701L99.8383 43.2432Z" fill="white"/>
</svg>
